solid OpenSCAD_Model
  facet normal -1 0 0
    outer loop
      vertex 1.3 2.53 0
      vertex 1.3 13 3.2
      vertex 1.3 13 0
    endloop
  endfacet
  facet normal -1 -0 0
    outer loop
      vertex 1.3 13 3.2
      vertex 1.3 2.53 0
      vertex 1.3 2.53 3.2
    endloop
  endfacet
  facet normal -1 0 0
    outer loop
      vertex 1.3 -10.17 0
      vertex 1.3 -2.55 3.2
      vertex 1.3 -2.55 0
    endloop
  endfacet
  facet normal -1 -0 0
    outer loop
      vertex 1.3 -2.55 3.2
      vertex 1.3 -10.17 0
      vertex 1.3 -10.17 3.2
    endloop
  endfacet
  facet normal 0 0 -1
    outer loop
      vertex -0.52 -0.75 0
      vertex 0.52 0.75 0
      vertex 0.52 -0.75 0
    endloop
  endfacet
  facet normal -0 0 -1
    outer loop
      vertex 0.52 0.75 0
      vertex -0.52 -0.75 0
      vertex -0.52 0.75 0
    endloop
  endfacet
  facet normal 0 0 -1
    outer loop
      vertex 0.52 -0.75 0
      vertex 1.3 -2.55 0
      vertex 0.52 -1.79 0
    endloop
  endfacet
  facet normal 0 0 -1
    outer loop
      vertex 1.3 -2.55 0
      vertex -0.52 -1.79 0
      vertex 0.52 -1.79 0
    endloop
  endfacet
  facet normal 0 0 -1
    outer loop
      vertex -1.3 -2.55 0
      vertex -0.52 -0.75 0
      vertex -0.52 -1.79 0
    endloop
  endfacet
  facet normal -0 0 -1
    outer loop
      vertex -0.52 -0.75 0
      vertex -1.3 -2.55 0
      vertex -0.52 0.75 0
    endloop
  endfacet
  facet normal -0 0 -1
    outer loop
      vertex -0.52 0.75 0
      vertex -1.3 -2.55 0
      vertex -1.3 2.53 0
    endloop
  endfacet
  facet normal 0 0 -1
    outer loop
      vertex -1.3 -2.55 0
      vertex -0.52 -1.79 0
      vertex 1.3 -2.55 0
    endloop
  endfacet
  facet normal 0 0 -1
    outer loop
      vertex 1.3 -2.55 0
      vertex 2.1 -12.71 0
      vertex 1.3 -10.17 0
    endloop
  endfacet
  facet normal 0 0 -1
    outer loop
      vertex 2.1 -12.71 0
      vertex 0.52 -11.95 0
      vertex 1.3 -10.17 0
    endloop
  endfacet
  facet normal 0 0 -1
    outer loop
      vertex 2.1 -12.71 0
      vertex -0.52 -11.95 0
      vertex 0.52 -11.95 0
    endloop
  endfacet
  facet normal 0 0 -1
    outer loop
      vertex -0.52 -11.95 0
      vertex -1.3 -10.17 0
      vertex -0.52 -10.91 0
    endloop
  endfacet
  facet normal 0 0 -1
    outer loop
      vertex -2.1 -12.71 0
      vertex -1.3 -2.55 0
      vertex -1.3 -10.17 0
    endloop
  endfacet
  facet normal -0 0 -1
    outer loop
      vertex -1.3 -2.55 0
      vertex -2.1 -12.71 0
      vertex -1.3 2.53 0
    endloop
  endfacet
  facet normal -0 0 -1
    outer loop
      vertex -1.3 2.53 0
      vertex -2.1 -12.71 0
      vertex -2.1 13.8 0
    endloop
  endfacet
  facet normal -0 0 -1
    outer loop
      vertex -0.52 -11.95 0
      vertex -2.1 -12.71 0
      vertex -1.3 -10.17 0
    endloop
  endfacet
  facet normal 0 0 -1
    outer loop
      vertex -2.1 -12.71 0
      vertex -0.52 -11.95 0
      vertex 2.1 -12.71 0
    endloop
  endfacet
  facet normal 0 0 -1
    outer loop
      vertex 2.1 -12.71 0
      vertex 1.3 -2.55 0
      vertex 2.1 13.8 0
    endloop
  endfacet
  facet normal 0 0 -1
    outer loop
      vertex 1.3 2.53 0
      vertex 2.1 13.8 0
      vertex 1.3 -2.55 0
    endloop
  endfacet
  facet normal 0 0 -1
    outer loop
      vertex 1.3 13 0
      vertex 2.1 13.8 0
      vertex 1.3 2.53 0
    endloop
  endfacet
  facet normal 0 0 -1
    outer loop
      vertex -1.3 13 0
      vertex 2.1 13.8 0
      vertex 1.3 13 0
    endloop
  endfacet
  facet normal 0 0 -1
    outer loop
      vertex -1.3 13 0
      vertex -2.1 13.8 0
      vertex 2.1 13.8 0
    endloop
  endfacet
  facet normal 0 0 -1
    outer loop
      vertex -1.3 2.53 0
      vertex -2.1 13.8 0
      vertex -1.3 13 0
    endloop
  endfacet
  facet normal 0 0 -1
    outer loop
      vertex 0.52 -10.91 0
      vertex 1.3 -10.17 0
      vertex 0.52 -11.95 0
    endloop
  endfacet
  facet normal 0 0 -1
    outer loop
      vertex -0.52 -10.91 0
      vertex 1.3 -10.17 0
      vertex 0.52 -10.91 0
    endloop
  endfacet
  facet normal -0 0 -1
    outer loop
      vertex 1.3 -10.17 0
      vertex -0.52 -10.91 0
      vertex -1.3 -10.17 0
    endloop
  endfacet
  facet normal 0 0 -1
    outer loop
      vertex 1.3 -2.55 0
      vertex 0.52 -0.75 0
      vertex 1.3 2.53 0
    endloop
  endfacet
  facet normal 0 0 -1
    outer loop
      vertex 0.52 0.75 0
      vertex 1.3 2.53 0
      vertex 0.52 -0.75 0
    endloop
  endfacet
  facet normal 0 0 -1
    outer loop
      vertex 0.52 1.79 0
      vertex 1.3 2.53 0
      vertex 0.52 0.75 0
    endloop
  endfacet
  facet normal 0 0 -1
    outer loop
      vertex -0.52 1.79 0
      vertex 1.3 2.53 0
      vertex 0.52 1.79 0
    endloop
  endfacet
  facet normal 0 0 -1
    outer loop
      vertex -0.52 1.79 0
      vertex -1.3 2.53 0
      vertex 1.3 2.53 0
    endloop
  endfacet
  facet normal 0 0 -1
    outer loop
      vertex -0.52 0.75 0
      vertex -1.3 2.53 0
      vertex -0.52 1.79 0
    endloop
  endfacet
  facet normal 1 -0 0
    outer loop
      vertex -1.3 2.53 3.2
      vertex -1.3 13 0
      vertex -1.3 13 3.2
    endloop
  endfacet
  facet normal 1 0 0
    outer loop
      vertex -1.3 13 0
      vertex -1.3 2.53 3.2
      vertex -1.3 2.53 0
    endloop
  endfacet
  facet normal 1 -0 0
    outer loop
      vertex -1.3 -10.17 3.2
      vertex -1.3 -2.55 0
      vertex -1.3 -2.55 3.2
    endloop
  endfacet
  facet normal 1 0 0
    outer loop
      vertex -1.3 -2.55 0
      vertex -1.3 -10.17 3.2
      vertex -1.3 -10.17 0
    endloop
  endfacet
  facet normal 0 1 -0
    outer loop
      vertex 1.3 -10.17 0
      vertex -1.3 -10.17 3.2
      vertex 1.3 -10.17 3.2
    endloop
  endfacet
  facet normal 0 1 0
    outer loop
      vertex -1.3 -10.17 3.2
      vertex 1.3 -10.17 0
      vertex -1.3 -10.17 0
    endloop
  endfacet
  facet normal 0 -1 0
    outer loop
      vertex -2.1 -12.71 0
      vertex 2.1 -12.71 3.2
      vertex -2.1 -12.71 3.2
    endloop
  endfacet
  facet normal 0 -1 -0
    outer loop
      vertex 2.1 -12.71 3.2
      vertex -2.1 -12.71 0
      vertex 2.1 -12.71 0
    endloop
  endfacet
  facet normal 0 -1 0
    outer loop
      vertex -1.3 -2.55 0
      vertex 1.3 -2.55 3.2
      vertex -1.3 -2.55 3.2
    endloop
  endfacet
  facet normal 0 -1 -0
    outer loop
      vertex 1.3 -2.55 3.2
      vertex -1.3 -2.55 0
      vertex 1.3 -2.55 0
    endloop
  endfacet
  facet normal 0 1 -0
    outer loop
      vertex 1.3 2.53 0
      vertex -1.3 2.53 3.2
      vertex 1.3 2.53 3.2
    endloop
  endfacet
  facet normal 0 1 0
    outer loop
      vertex -1.3 2.53 3.2
      vertex 1.3 2.53 0
      vertex -1.3 2.53 0
    endloop
  endfacet
  facet normal 1 -0 0
    outer loop
      vertex 2.1 -12.71 3.2
      vertex 2.1 13.8 0
      vertex 2.1 13.8 3.2
    endloop
  endfacet
  facet normal 1 0 0
    outer loop
      vertex 2.1 13.8 0
      vertex 2.1 -12.71 3.2
      vertex 2.1 -12.71 0
    endloop
  endfacet
  facet normal -1 0 0
    outer loop
      vertex -2.1 -12.71 0
      vertex -2.1 13.8 3.2
      vertex -2.1 13.8 0
    endloop
  endfacet
  facet normal -1 -0 0
    outer loop
      vertex -2.1 13.8 3.2
      vertex -2.1 -12.71 0
      vertex -2.1 -12.71 3.2
    endloop
  endfacet
  facet normal 0 1 -0
    outer loop
      vertex 2.1 13.8 0
      vertex -2.1 13.8 3.2
      vertex 2.1 13.8 3.2
    endloop
  endfacet
  facet normal 0 1 0
    outer loop
      vertex -2.1 13.8 3.2
      vertex 2.1 13.8 0
      vertex -2.1 13.8 0
    endloop
  endfacet
  facet normal 0 -1 0
    outer loop
      vertex -1.3 13 0
      vertex 1.3 13 3.2
      vertex -1.3 13 3.2
    endloop
  endfacet
  facet normal 0 -1 -0
    outer loop
      vertex 1.3 13 3.2
      vertex -1.3 13 0
      vertex 1.3 13 0
    endloop
  endfacet
  facet normal -1 0 0
    outer loop
      vertex 0.52 -11.95 0
      vertex 0.52 -10.91 3.2
      vertex 0.52 -10.91 0
    endloop
  endfacet
  facet normal -1 -0 0
    outer loop
      vertex 0.52 -10.91 3.2
      vertex 0.52 -11.95 0
      vertex 0.52 -11.95 3.2
    endloop
  endfacet
  facet normal 1 -0 0
    outer loop
      vertex -0.52 -11.95 3.2
      vertex -0.52 -10.91 0
      vertex -0.52 -10.91 3.2
    endloop
  endfacet
  facet normal 1 0 0
    outer loop
      vertex -0.52 -10.91 0
      vertex -0.52 -11.95 3.2
      vertex -0.52 -11.95 0
    endloop
  endfacet
  facet normal 0 -1 0
    outer loop
      vertex -0.52 -10.91 0
      vertex 0.52 -10.91 3.2
      vertex -0.52 -10.91 3.2
    endloop
  endfacet
  facet normal 0 -1 -0
    outer loop
      vertex 0.52 -10.91 3.2
      vertex -0.52 -10.91 0
      vertex 0.52 -10.91 0
    endloop
  endfacet
  facet normal 0 1 -0
    outer loop
      vertex 0.52 -11.95 0
      vertex -0.52 -11.95 3.2
      vertex 0.52 -11.95 3.2
    endloop
  endfacet
  facet normal 0 1 0
    outer loop
      vertex -0.52 -11.95 3.2
      vertex 0.52 -11.95 0
      vertex -0.52 -11.95 0
    endloop
  endfacet
  facet normal -1 0 0
    outer loop
      vertex 0.52 -1.79 0
      vertex 0.52 -0.75 3.2
      vertex 0.52 -0.75 0
    endloop
  endfacet
  facet normal -1 -0 0
    outer loop
      vertex 0.52 -0.75 3.2
      vertex 0.52 -1.79 0
      vertex 0.52 -1.79 3.2
    endloop
  endfacet
  facet normal 1 -0 0
    outer loop
      vertex -0.52 -1.79 3.2
      vertex -0.52 -0.75 0
      vertex -0.52 -0.75 3.2
    endloop
  endfacet
  facet normal 1 0 0
    outer loop
      vertex -0.52 -0.75 0
      vertex -0.52 -1.79 3.2
      vertex -0.52 -1.79 0
    endloop
  endfacet
  facet normal 0 -1 0
    outer loop
      vertex -0.52 -0.75 0
      vertex 0.52 -0.75 3.2
      vertex -0.52 -0.75 3.2
    endloop
  endfacet
  facet normal 0 -1 -0
    outer loop
      vertex 0.52 -0.75 3.2
      vertex -0.52 -0.75 0
      vertex 0.52 -0.75 0
    endloop
  endfacet
  facet normal 0 1 -0
    outer loop
      vertex 0.52 -1.79 0
      vertex -0.52 -1.79 3.2
      vertex 0.52 -1.79 3.2
    endloop
  endfacet
  facet normal 0 1 0
    outer loop
      vertex -0.52 -1.79 3.2
      vertex 0.52 -1.79 0
      vertex -0.52 -1.79 0
    endloop
  endfacet
  facet normal -1 0 0
    outer loop
      vertex 0.52 0.75 0
      vertex 0.52 1.79 3.2
      vertex 0.52 1.79 0
    endloop
  endfacet
  facet normal -1 -0 0
    outer loop
      vertex 0.52 1.79 3.2
      vertex 0.52 0.75 0
      vertex 0.52 0.75 3.2
    endloop
  endfacet
  facet normal 1 -0 0
    outer loop
      vertex -0.52 0.75 3.2
      vertex -0.52 1.79 0
      vertex -0.52 1.79 3.2
    endloop
  endfacet
  facet normal 1 0 0
    outer loop
      vertex -0.52 1.79 0
      vertex -0.52 0.75 3.2
      vertex -0.52 0.75 0
    endloop
  endfacet
  facet normal 0 -1 0
    outer loop
      vertex -0.52 1.79 0
      vertex 0.52 1.79 3.2
      vertex -0.52 1.79 3.2
    endloop
  endfacet
  facet normal 0 -1 -0
    outer loop
      vertex 0.52 1.79 3.2
      vertex -0.52 1.79 0
      vertex 0.52 1.79 0
    endloop
  endfacet
  facet normal 0 1 -0
    outer loop
      vertex 0.52 0.75 0
      vertex -0.52 0.75 3.2
      vertex 0.52 0.75 3.2
    endloop
  endfacet
  facet normal 0 1 0
    outer loop
      vertex -0.52 0.75 3.2
      vertex 0.52 0.75 0
      vertex -0.52 0.75 0
    endloop
  endfacet
  facet normal 0 0 1
    outer loop
      vertex 1.3 -10.17 3.2
      vertex -0.52 -10.91 3.2
      vertex 0.52 -10.91 3.2
    endloop
  endfacet
  facet normal 0 0 1
    outer loop
      vertex -0.52 -10.91 3.2
      vertex -1.3 -10.17 3.2
      vertex -0.52 -11.95 3.2
    endloop
  endfacet
  facet normal -0 0 1
    outer loop
      vertex -1.3 -10.17 3.2
      vertex -0.52 -10.91 3.2
      vertex 1.3 -10.17 3.2
    endloop
  endfacet
  facet normal -0 0 1
    outer loop
      vertex -0.52 0.75 3.2
      vertex 0.52 -0.75 3.2
      vertex 0.52 0.75 3.2
    endloop
  endfacet
  facet normal 0 0 1
    outer loop
      vertex 0.52 -0.75 3.2
      vertex -0.52 0.75 3.2
      vertex -0.52 -0.75 3.2
    endloop
  endfacet
  facet normal 0 0 1
    outer loop
      vertex 0.52 0.75 3.2
      vertex 1.3 2.53 3.2
      vertex 0.52 1.79 3.2
    endloop
  endfacet
  facet normal 0 0 1
    outer loop
      vertex 1.3 2.53 3.2
      vertex -0.52 1.79 3.2
      vertex 0.52 1.79 3.2
    endloop
  endfacet
  facet normal 0 0 1
    outer loop
      vertex -1.3 2.53 3.2
      vertex -0.52 0.75 3.2
      vertex -0.52 1.79 3.2
    endloop
  endfacet
  facet normal 0 0 1
    outer loop
      vertex -0.52 0.75 3.2
      vertex -1.3 2.53 3.2
      vertex -0.52 -0.75 3.2
    endloop
  endfacet
  facet normal 0 0 1
    outer loop
      vertex -1.3 -2.55 3.2
      vertex -0.52 -0.75 3.2
      vertex -1.3 2.53 3.2
    endloop
  endfacet
  facet normal -0 0 1
    outer loop
      vertex -1.3 2.53 3.2
      vertex -0.52 1.79 3.2
      vertex 1.3 2.53 3.2
    endloop
  endfacet
  facet normal 0 0 1
    outer loop
      vertex 1.3 2.53 3.2
      vertex 2.1 13.8 3.2
      vertex 1.3 13 3.2
    endloop
  endfacet
  facet normal 0 0 1
    outer loop
      vertex 2.1 13.8 3.2
      vertex -1.3 13 3.2
      vertex 1.3 13 3.2
    endloop
  endfacet
  facet normal 0 0 1
    outer loop
      vertex -2.1 13.8 3.2
      vertex -1.3 2.53 3.2
      vertex -1.3 13 3.2
    endloop
  endfacet
  facet normal 0 0 1
    outer loop
      vertex -1.3 2.53 3.2
      vertex -2.1 13.8 3.2
      vertex -1.3 -2.55 3.2
    endloop
  endfacet
  facet normal 0 0 1
    outer loop
      vertex -2.1 -12.71 3.2
      vertex -1.3 -2.55 3.2
      vertex -2.1 13.8 3.2
    endloop
  endfacet
  facet normal -0 0 1
    outer loop
      vertex -2.1 13.8 3.2
      vertex -1.3 13 3.2
      vertex 2.1 13.8 3.2
    endloop
  endfacet
  facet normal 0 0 1
    outer loop
      vertex 2.1 13.8 3.2
      vertex 1.3 2.53 3.2
      vertex 2.1 -12.71 3.2
    endloop
  endfacet
  facet normal -0 0 1
    outer loop
      vertex 1.3 -2.55 3.2
      vertex 2.1 -12.71 3.2
      vertex 1.3 2.53 3.2
    endloop
  endfacet
  facet normal -0 0 1
    outer loop
      vertex 1.3 -10.17 3.2
      vertex 2.1 -12.71 3.2
      vertex 1.3 -2.55 3.2
    endloop
  endfacet
  facet normal -0 0 1
    outer loop
      vertex 0.52 -10.91 3.2
      vertex 2.1 -12.71 3.2
      vertex 1.3 -10.17 3.2
    endloop
  endfacet
  facet normal -0 0 1
    outer loop
      vertex 0.52 -11.95 3.2
      vertex 2.1 -12.71 3.2
      vertex 0.52 -10.91 3.2
    endloop
  endfacet
  facet normal -0 0 1
    outer loop
      vertex -0.52 -11.95 3.2
      vertex 2.1 -12.71 3.2
      vertex 0.52 -11.95 3.2
    endloop
  endfacet
  facet normal 0 0 1
    outer loop
      vertex -0.52 -11.95 3.2
      vertex -2.1 -12.71 3.2
      vertex 2.1 -12.71 3.2
    endloop
  endfacet
  facet normal 0 0 1
    outer loop
      vertex -1.3 -10.17 3.2
      vertex -2.1 -12.71 3.2
      vertex -0.52 -11.95 3.2
    endloop
  endfacet
  facet normal 0 0 1
    outer loop
      vertex -1.3 -2.55 3.2
      vertex -2.1 -12.71 3.2
      vertex -1.3 -10.17 3.2
    endloop
  endfacet
  facet normal 0 0 1
    outer loop
      vertex 1.3 2.53 3.2
      vertex 0.52 0.75 3.2
      vertex 1.3 -2.55 3.2
    endloop
  endfacet
  facet normal -0 0 1
    outer loop
      vertex 0.52 -0.75 3.2
      vertex 1.3 -2.55 3.2
      vertex 0.52 0.75 3.2
    endloop
  endfacet
  facet normal -0 0 1
    outer loop
      vertex 0.52 -1.79 3.2
      vertex 1.3 -2.55 3.2
      vertex 0.52 -0.75 3.2
    endloop
  endfacet
  facet normal -0 0 1
    outer loop
      vertex -0.52 -1.79 3.2
      vertex 1.3 -2.55 3.2
      vertex 0.52 -1.79 3.2
    endloop
  endfacet
  facet normal 0 0 1
    outer loop
      vertex -0.52 -1.79 3.2
      vertex -1.3 -2.55 3.2
      vertex 1.3 -2.55 3.2
    endloop
  endfacet
  facet normal 0 0 1
    outer loop
      vertex -0.52 -0.75 3.2
      vertex -1.3 -2.55 3.2
      vertex -0.52 -1.79 3.2
    endloop
  endfacet
endsolid OpenSCAD_Model
